<?xml version="1.0" standalone="no"?>
<!DOCTYPE svg PUBLIC "-//W3C//DTD SVG 20010904//EN"
 "http://www.w3.org/TR/2001/REC-SVG-20010904/DTD/svg10.dtd">
<svg version="1.0" xmlns="http://www.w3.org/2000/svg"
 width="300.000000pt" height="300.000000pt" viewBox="0 0 300.000000 300.000000"
 preserveAspectRatio="xMidYMid meet">
<metadata>
Created by potrace 1.15, written by Peter Selinger 2001-2017
</metadata>
<g transform="translate(0.000000,300.000000) scale(0.100000,-0.100000)"
fill="#000000" stroke="none">
<path d="M1280 2993 c-196 -25 -441 -122 -633 -250 -132 -88 -302 -258 -390
-390 -110 -164 -183 -334 -234 -538 -26 -105 -26 -517 1 -630 68 -294 203
-542 406 -746 204 -205 416 -327 710 -406 85 -23 119 -26 315 -30 248 -6 333
4 502 58 531 168 935 628 1029 1172 23 132 15 499 -13 607 -74 279 -192 500
-373 693 -164 176 -391 321 -622 398 -160 54 -214 61 -443 64 -121 2 -236 1
-255 -2z m891 -602 l29 -29 0 -870 0 -870 -26 -31 -26 -31 -640 0 c-439 0
-646 3 -660 11 -48 26 -48 20 -48 919 0 893 0 892 47 919 12 7 221 10 656 11
l639 0 29 -29z"/>
<path d="M964 2256 c-17 -13 -19 -29 -22 -156 -3 -116 -1 -145 12 -166 l16
-24 524 0 c475 0 525 2 537 17 11 12 14 54 14 165 0 137 -2 151 -19 164 -29
21 -1033 21 -1062 0z"/>
<path d="M974 1736 c-3 -7 -4 -38 -2 -67 l3 -54 93 -3 92 -3 0 71 0 70 -90 0
c-68 0 -92 -4 -96 -14z"/>
<path d="M1242 1683 l3 -68 90 0 90 0 0 65 0 65 -93 3 -93 3 3 -68z"/>
<path d="M1502 1683 l3 -68 90 0 90 0 3 68 3 67 -96 0 -96 0 3 -67z"/>
<path d="M1842 1683 l3 -68 90 0 90 0 0 65 0 65 -93 3 -93 3 3 -68z"/>
<path d="M974 1456 c-3 -7 -4 -38 -2 -67 l3 -54 90 0 90 0 3 68 3 67 -91 0
c-67 0 -92 -3 -96 -14z"/>
<path d="M1242 1403 l3 -68 90 0 90 0 0 65 0 65 -93 3 -93 3 3 -68z"/>
<path d="M1502 1403 l3 -68 90 0 90 0 3 68 3 67 -96 0 -96 0 3 -67z"/>
<path d="M1842 1403 l3 -68 90 0 90 0 0 65 0 65 -93 3 -93 3 3 -68z"/>
<path d="M974 1256 c-3 -7 -4 -38 -2 -67 l3 -54 93 -3 92 -3 0 71 0 70 -90 0
c-68 0 -92 -4 -96 -14z"/>
<path d="M1247 1264 c-4 -4 -7 -36 -7 -71 l0 -64 93 3 92 3 0 65 0 65 -85 3
c-47 1 -89 0 -93 -4z"/>
<path d="M1507 1264 c-4 -4 -7 -36 -7 -71 l0 -63 95 0 96 0 -3 68 -3 67 -85 3
c-47 1 -89 0 -93 -4z"/>
<path d="M1847 1264 c-4 -4 -7 -36 -7 -71 l0 -64 93 3 92 3 0 65 0 65 -85 3
c-47 1 -89 0 -93 -4z"/>
<path d="M974 1046 c-3 -7 -4 -38 -2 -67 l3 -54 93 -3 92 -3 0 71 0 70 -90 0
c-68 0 -92 -4 -96 -14z"/>
<path d="M1240 990 l0 -71 93 3 92 3 0 65 0 65 -92 3 -93 3 0 -71z"/>
<path d="M1502 993 l3 -68 90 0 90 0 3 68 3 67 -96 0 -96 0 3 -67z"/>
<path d="M1840 891 c0 -145 2 -170 16 -175 32 -12 151 -6 163 8 8 9 11 64 9
172 l-3 159 -92 3 -93 3 0 -170z"/>
<path d="M977 854 c-12 -12 -8 -119 5 -132 14 -14 146 -16 166 -3 9 5 12 27
10 72 l-3 64 -85 3 c-47 1 -89 0 -93 -4z"/>
<path d="M1247 854 c-4 -4 -7 -35 -7 -70 0 -73 2 -74 100 -74 83 0 92 9 88 87
l-3 58 -85 3 c-47 1 -89 0 -93 -4z"/>
<path d="M1507 854 c-4 -4 -7 -35 -7 -70 0 -47 4 -63 16 -68 23 -9 147 -7 162
3 9 5 12 27 10 72 l-3 64 -85 3 c-47 1 -89 0 -93 -4z"/>
</g>
</svg>
